<?xml version="1.0" encoding="utf-8"?>
<!-- Svg Vector Icons : http://www.onlinewebfonts.com/icon -->
<!DOCTYPE svg PUBLIC "-//W3C//DTD SVG 1.1//EN" "http://www.w3.org/Graphics/SVG/1.1/DTD/svg11.dtd">
<svg version="1.1" xmlns="http://www.w3.org/2000/svg" xmlns:xlink="http://www.w3.org/1999/xlink" x="0px" y="0px" viewBox="0 0 1000 1000" enable-background="new 0 0 1000 1000" xml:space="preserve">
<metadata> Svg Vector Icons : http://www.onlinewebfonts.com/icon </metadata>
<g><path d="M467.2,768l289.1-243.9c8.4-7.1,12.6-15.1,12.6-24.1s-4.2-17-12.6-24.1L467.2,232c-7.6-7.1-17.1-10.6-28.6-10.6c-11.4,0-20.9,3.5-28.6,10.6L345,286c-8.4,7.1-12.6,15.4-12.6,25.1c0,9.6,4.2,17.7,12.6,24.1L540.3,500L345,664.9c-8.4,7.1-12.6,15.1-12.6,24.1s4.2,17.4,12.6,25.1l65.1,55c8.4,6.4,17.9,9.6,28.6,9.6s20.2-3.2,28.6-9.6V768z M989.4,500c0,75.2-21.7,144.3-65.1,207.3S821.4,820.4,746,857.7c-75.4,37.3-157.3,55.9-245.7,55.9c-88.4,0-170.6-18.6-246.8-55.9c-76.2-37.3-135.2-87.4-177.1-150.4c-41.9-63-64-132.1-66.3-207.3C7.9,424.8,30,355.7,76.4,292.7c46.5-63,105.5-113.1,177.1-150.4c71.6-37.3,153.9-55.9,246.8-55.9c92.9,0,174.8,18.6,245.7,55.9c70.8,37.3,130.3,87.4,178.3,150.4C972.3,355.7,994,424.8,989.4,500z"/></g>
</svg>